<svg xmlns="http://www.w3.org/2000/svg" viewBox="0 0 407.26 189.12"><defs><style>.cls-1{fill:#ff513f;}.cls-1,.cls-10,.cls-14,.cls-3,.cls-7{isolation:isolate;}.cls-1,.cls-6{opacity:0.5;}.cls-15,.cls-2,.cls-3{fill:none;stroke-miterlimit:10;stroke-width:0.5px;}.cls-2,.cls-3{stroke:#000;}.cls-3{opacity:0.4;}.cls-4,.cls-7{fill:#383838;}.cls-5{fill:#fff;}.cls-7{font-size:12px;}.cls-10,.cls-7{font-family:Roboto-Light, Roboto;font-weight:300;}.cls-8{letter-spacing:-0.01em;}.cls-9{letter-spacing:-0.01em;}.cls-10,.cls-14{font-size:14px;fill:#4d4d4d;}.cls-11{letter-spacing:-0.01em;}.cls-12{letter-spacing:-0.01em;}.cls-13{letter-spacing:-0.01em;}.cls-14{font-family:Roboto-Bold, Roboto;font-weight:700;}.cls-15{stroke:#383838;}.cls-16{letter-spacing:-0.01em;}</style></defs><g id="Capa_2" data-name="Capa 2"><g id="Layer_1" data-name="Layer 1"><rect class="cls-1" x="251.15" y="74.57" width="78.1" height="12.3"/><line class="cls-2" x1="275.15" y1="87.47" x2="275.15" y2="74.17"/><line class="cls-3" x1="398.15" y1="82.57" x2="398.15" y2="78.97"/><line class="cls-3" x1="394.15" y1="82.57" x2="394.15" y2="78.97"/><line class="cls-3" x1="389.95" y1="82.57" x2="389.95" y2="78.97"/><line class="cls-3" x1="385.85" y1="82.57" x2="385.85" y2="78.97"/><line class="cls-3" x1="381.85" y1="82.57" x2="381.85" y2="78.97"/><line class="cls-3" x1="377.65" y1="82.57" x2="377.65" y2="78.97"/><line class="cls-3" x1="373.55" y1="82.57" x2="373.55" y2="78.97"/><line class="cls-3" x1="369.45" y1="82.57" x2="369.45" y2="78.97"/><line class="cls-3" x1="365.35" y1="82.57" x2="365.35" y2="78.97"/><line class="cls-3" x1="361.35" y1="82.57" x2="361.35" y2="78.97"/><line class="cls-3" x1="357.15" y1="82.57" x2="357.15" y2="78.97"/><line class="cls-3" x1="353.05" y1="82.57" x2="353.05" y2="78.97"/><line class="cls-3" x1="348.95" y1="82.57" x2="348.95" y2="78.97"/><line class="cls-3" x1="344.85" y1="82.57" x2="344.85" y2="78.97"/><line class="cls-3" x1="340.75" y1="82.57" x2="340.75" y2="78.97"/><line class="cls-3" x1="336.65" y1="82.57" x2="336.65" y2="78.97"/><line class="cls-3" x1="332.65" y1="82.57" x2="332.65" y2="78.97"/><line class="cls-3" x1="328.45" y1="82.57" x2="328.45" y2="78.97"/><line class="cls-3" x1="324.35" y1="82.57" x2="324.35" y2="78.97"/><line class="cls-3" x1="320.25" y1="82.57" x2="320.25" y2="78.97"/><line class="cls-3" x1="316.15" y1="82.57" x2="316.15" y2="78.97"/><line class="cls-3" x1="312.15" y1="82.57" x2="312.15" y2="78.97"/><line class="cls-3" x1="307.95" y1="82.57" x2="307.95" y2="78.97"/><line class="cls-3" x1="303.85" y1="82.57" x2="303.85" y2="78.97"/><line class="cls-3" x1="299.75" y1="82.57" x2="299.75" y2="78.97"/><line class="cls-3" x1="295.65" y1="82.57" x2="295.65" y2="78.97"/><line class="cls-3" x1="291.65" y1="82.57" x2="291.65" y2="78.97"/><line class="cls-3" x1="287.45" y1="82.57" x2="287.45" y2="78.97"/><line class="cls-3" x1="283.35" y1="82.57" x2="283.35" y2="78.97"/><line class="cls-3" x1="279.25" y1="82.57" x2="279.25" y2="78.97"/><line class="cls-2" x1="148.05" y1="87.47" x2="148.05" y2="74.17"/><line class="cls-3" x1="271.05" y1="82.57" x2="271.05" y2="78.97"/><line class="cls-3" x1="266.95" y1="82.57" x2="266.95" y2="78.97"/><line class="cls-3" x1="262.85" y1="82.57" x2="262.85" y2="78.97"/><line class="cls-3" x1="258.85" y1="82.57" x2="258.85" y2="78.97"/><line class="cls-3" x1="254.65" y1="82.57" x2="254.65" y2="78.97"/><line class="cls-3" x1="250.55" y1="82.57" x2="250.55" y2="78.97"/><line class="cls-3" x1="246.45" y1="82.57" x2="246.45" y2="78.97"/><line class="cls-3" x1="242.35" y1="82.57" x2="242.35" y2="78.97"/><line class="cls-3" x1="238.25" y1="82.57" x2="238.25" y2="78.97"/><line class="cls-3" x1="234.15" y1="82.57" x2="234.15" y2="78.97"/><line class="cls-3" x1="230.05" y1="82.57" x2="230.05" y2="78.97"/><line class="cls-3" x1="225.95" y1="82.57" x2="225.95" y2="78.97"/><line class="cls-3" x1="221.85" y1="82.57" x2="221.85" y2="78.97"/><line class="cls-3" x1="217.75" y1="82.57" x2="217.75" y2="78.97"/><line class="cls-3" x1="213.65" y1="82.57" x2="213.65" y2="78.97"/><line class="cls-3" x1="209.65" y1="82.57" x2="209.65" y2="78.97"/><line class="cls-3" x1="205.45" y1="82.57" x2="205.45" y2="78.97"/><line class="cls-3" x1="201.35" y1="82.57" x2="201.35" y2="78.97"/><line class="cls-3" x1="197.25" y1="82.57" x2="197.25" y2="78.97"/><line class="cls-3" x1="193.15" y1="82.57" x2="193.15" y2="78.97"/><line class="cls-3" x1="189.05" y1="82.57" x2="189.05" y2="78.97"/><line class="cls-3" x1="184.95" y1="82.57" x2="184.95" y2="78.97"/><line class="cls-3" x1="180.85" y1="82.57" x2="180.85" y2="78.97"/><line class="cls-3" x1="176.75" y1="82.57" x2="176.75" y2="78.97"/><line class="cls-3" x1="172.65" y1="82.57" x2="172.65" y2="78.97"/><line class="cls-3" x1="168.55" y1="82.57" x2="168.55" y2="78.97"/><line class="cls-3" x1="164.45" y1="82.57" x2="164.45" y2="78.97"/><line class="cls-3" x1="160.35" y1="82.57" x2="160.35" y2="78.97"/><line class="cls-3" x1="156.25" y1="82.57" x2="156.25" y2="78.97"/><line class="cls-3" x1="152.05" y1="82.57" x2="152.05" y2="78.97"/><line class="cls-2" x1="25.05" y1="87.47" x2="25.05" y2="74.17"/><line class="cls-3" x1="143.95" y1="82.57" x2="143.95" y2="78.97"/><line class="cls-3" x1="139.85" y1="82.57" x2="139.85" y2="78.97"/><line class="cls-3" x1="135.75" y1="82.57" x2="135.75" y2="78.97"/><line class="cls-3" x1="131.55" y1="82.57" x2="131.55" y2="78.97"/><line class="cls-3" x1="127.55" y1="82.57" x2="127.55" y2="78.97"/><line class="cls-3" x1="123.45" y1="82.57" x2="123.45" y2="78.97"/><line class="cls-3" x1="119.35" y1="82.57" x2="119.35" y2="78.97"/><line class="cls-3" x1="115.25" y1="82.57" x2="115.25" y2="78.97"/><line class="cls-3" x1="111.15" y1="82.57" x2="111.15" y2="78.97"/><line class="cls-3" x1="107.05" y1="82.57" x2="107.05" y2="78.97"/><line class="cls-3" x1="102.95" y1="82.57" x2="102.95" y2="78.97"/><line class="cls-3" x1="98.85" y1="82.57" x2="98.85" y2="78.97"/><line class="cls-3" x1="94.75" y1="82.57" x2="94.75" y2="78.97"/><line class="cls-3" x1="90.65" y1="82.57" x2="90.65" y2="78.97"/><line class="cls-3" x1="86.55" y1="82.57" x2="86.55" y2="78.97"/><line class="cls-3" x1="82.35" y1="82.57" x2="82.35" y2="78.97"/><line class="cls-3" x1="78.35" y1="82.57" x2="78.35" y2="78.97"/><line class="cls-3" x1="74.25" y1="82.57" x2="74.25" y2="78.97"/><line class="cls-3" x1="70.15" y1="82.57" x2="70.15" y2="78.97"/><line class="cls-3" x1="66.05" y1="82.57" x2="66.05" y2="78.97"/><line class="cls-3" x1="61.95" y1="82.57" x2="61.95" y2="78.97"/><line class="cls-3" x1="57.95" y1="82.57" x2="57.95" y2="78.97"/><line class="cls-3" x1="53.75" y1="82.57" x2="53.75" y2="78.97"/><line class="cls-3" x1="49.55" y1="82.57" x2="49.55" y2="78.97"/><line class="cls-3" x1="45.55" y1="82.57" x2="45.55" y2="78.97"/><line class="cls-3" x1="41.45" y1="82.57" x2="41.45" y2="78.97"/><line class="cls-3" x1="37.45" y1="82.57" x2="37.45" y2="78.97"/><line class="cls-3" x1="33.25" y1="82.57" x2="33.25" y2="78.97"/><line class="cls-3" x1="29.05" y1="82.57" x2="29.05" y2="78.97"/><circle class="cls-4" cx="250.95" cy="80.79" r="3.9"/><path class="cls-5" d="M250.85,77.47a3.3,3.3,0,1,1-3.3,3.3,3.4,3.4,0,0,1,3.3-3.3m0-1.2a4.5,4.5,0,1,0,4.5,4.5,4.48,4.48,0,0,0-4.5-4.5Z"/><circle class="cls-4" cx="310.85" cy="80.87" r="3.9"/><path class="cls-5" d="M310.85,77.47a3.3,3.3,0,1,1-3.3,3.3,3.33,3.33,0,0,1,3.3-3.3m0-1.2a4.5,4.5,0,1,0,4.5,4.5,4.55,4.55,0,0,0-4.5-4.5Z"/><circle class="cls-4" cx="315.55" cy="80.87" r="3.9"/><path class="cls-5" d="M315.55,77.47a3.3,3.3,0,1,1-3.3,3.3,3.27,3.27,0,0,1,3.3-3.3m0-1.2a4.5,4.5,0,1,0,4.5,4.5,4.48,4.48,0,0,0-4.5-4.5Z"/><circle class="cls-4" cx="320.15" cy="80.87" r="3.9"/><path class="cls-5" d="M320.15,77.47a3.3,3.3,0,1,1-3.3,3.3,3.4,3.4,0,0,1,3.3-3.3m0-1.2a4.5,4.5,0,1,0,4.5,4.5,4.48,4.48,0,0,0-4.5-4.5Z"/><circle class="cls-4" cx="324.75" cy="80.87" r="3.9"/><path class="cls-5" d="M324.75,77.47a3.3,3.3,0,1,1-3.3,3.3,3.47,3.47,0,0,1,3.3-3.3m0-1.2a4.5,4.5,0,1,0,4.5,4.5,4.48,4.48,0,0,0-4.5-4.5Z"/><circle class="cls-4" cx="329.55" cy="80.87" r="3.9"/><path class="cls-5" d="M329.55,77.47a3.3,3.3,0,1,1-3.3,3.3,3.33,3.33,0,0,1,3.3-3.3m0-1.2a4.5,4.5,0,1,0,4.5,4.5,4.55,4.55,0,0,0-4.5-4.5Z"/><g class="cls-6"><text class="cls-7" transform="translate(66.75 57.71)">JUNIO</text><text class="cls-7" transform="translate(195.89 109.53)">JULIO</text><text class="cls-7" transform="translate(334.66 57.71)"><tspan class="cls-8">A</tspan><tspan x="7.29" y="0">GOS</tspan><tspan class="cls-9" x="30.87" y="0">T</tspan><tspan x="37.88" y="0">O</tspan></text></g><text class="cls-10" transform="translate(31.01 130.92)">Comienzan las <tspan x="-31.01" y="16.8">p</tspan><tspan class="cls-11" x="-23.22" y="16.8">r</tspan><tspan x="-18.58" y="16.8">otestas por el p</tspan><tspan class="cls-11" x="75.97" y="16.8">r</tspan><tspan class="cls-12" x="80.61" y="16.8">o</tspan><tspan class="cls-13" x="88.3" y="16.8">y</tspan><tspan x="95.06" y="16.8">ecto </tspan><tspan x="-15.5" y="33.6">de l</tspan><tspan class="cls-13" x="6.08" y="33.6">e</tspan><tspan x="13.2" y="33.6">y de extradición</tspan></text><text class="cls-14" transform="translate(180.66 11.98)">Primera demostración</text><text class="cls-14" transform="translate(186.76 28.78)">en la sala de llegada</text><line class="cls-15" x1="58.85" y1="117.77" x2="58.85" y2="82.97"/><line class="cls-15" x1="250.95" y1="78.27" x2="250.95" y2="34.87"/><text class="cls-14" transform="translate(237.6 134.92)">5 días ininterrumpidos de <tspan x="14.69" y="16.8">mani</tspan><tspan class="cls-16" x="45.96" y="16.8">f</tspan><tspan x="50.68" y="16.8">estaciones que </tspan><tspan x="-5.96" y="33.6">termina</tspan><tspan class="cls-11" x="42.44" y="33.6">r</tspan><tspan x="47.23" y="33.6">on con más de 300 </tspan><tspan x="23.76" y="50.4">vuelos cancelados</tspan></text><line class="cls-15" x1="319.35" y1="117.77" x2="319.35" y2="84.17"/><circle class="cls-5" cx="57.95" cy="80.87" r="3.9"/><path class="cls-4" d="M58,77.47a3.3,3.3,0,0,1,0,6.6,3.3,3.3,0,0,1,0-6.6m0-1.2a4.5,4.5,0,1,0,4.5,4.5,4.55,4.55,0,0,0-4.5-4.5Z"/></g></g></svg>