<?xml version="1.0" encoding="utf-8"?>
<!-- Generator: Adobe Illustrator 24.0.2, SVG Export Plug-In . SVG Version: 6.00 Build 0)  -->
<svg version="1.1" id="Layer_1" xmlns="http://www.w3.org/2000/svg" xmlns:xlink="http://www.w3.org/1999/xlink" x="0px" y="0px"
	 viewBox="0 0 415.5 392.2" style="enable-background:new 0 0 415.5 392.2;" xml:space="preserve">
<style type="text/css">
	.st0{fill:none;stroke:#010101;stroke-width:0.5;stroke-linecap:square;stroke-miterlimit:1;}
	.st1{fill:#010101;}
	.st2{stroke:#000000;stroke-miterlimit:10;}
	.st3{font-family:'Roboto-Regular';}
	.st4{font-size:16px;}
	.st5{fill:#77787B;}
	.st6{font-size:14px;}
</style>
<image style="overflow:visible;" width="850" height="1415" xlink:href="trafico.jpg"  transform="matrix(0.4794 0 0 0.4794 3.6028 -321.5308)">
</image>
<g id="Layer_6_1_">
	
		<image style="overflow:visible;enable-background:new    ;" width="1918" height="925" xlink:href="CA28352453A77618.png"  transform="matrix(0.4304 0 0 0.4304 -261.6032 454.4191)">
	</image>
</g>
<g id="Layer_4_1_">
	<path class="st0" d="M172.8,242.6c-1.3-6.2-7.2-10.3-13.4-9.3"/>
	<polygon class="st1" points="174.3,240.5 173.9,240.2 172.7,242.4 170.6,241 170.3,241.5 172.9,243.1 	"/>
	<path class="st2" d="M188.1,105.9c-1.4,0-2.5,1.1-2.5,2.5l0,0c0,1.4,1.1,2.5,2.5,2.5s2.5-1.1,2.5-2.5S189.5,105.9,188.1,105.9"/>
	<path class="st2" d="M225.4,227.8c-1.4,0-2.5,1.1-2.5,2.5s1.1,2.5,2.5,2.5s2.5-1.1,2.5-2.5S226.8,227.8,225.4,227.8"/>
	<path class="st2" d="M348.3,139.9c-1.4,0-2.5,1.1-2.5,2.5l0,0c0,1.4,1.1,2.6,2.5,2.6s2.6-1.1,2.6-2.5
		C350.9,141.1,349.8,139.9,348.3,139.9L348.3,139.9"/>
	<path class="st2" d="M80.9,312c-1.4,0-2.5,1.1-2.5,2.5l0,0c0,1.4,1.1,2.5,2.5,2.5s2.5-1.1,2.5-2.5S82.3,312,80.9,312"/>
	<path class="st2" d="M266.3,123.9c-1.4,0-2.5,1.1-2.5,2.5s1.1,2.5,2.5,2.5s2.5-1.1,2.5-2.5S267.7,123.9,266.3,123.9"/>
	<text transform="matrix(1 0 0 1 192.8743 105.9428)" class="st3 st4">Beijing</text>
	<text transform="matrix(1 0 0 1 20.1743 315.6728)" class="st5 st3 st4">Bangkok</text>
	<text transform="matrix(1 0 0 1 358.1343 147.8627)" class="st5 st3 st4">T</text>
	<text transform="matrix(1 0 0 1 366.9043 147.8627)" class="st5 st3 st4">ok</text>
	<text transform="matrix(1 0 0 1 384.1443 147.8627)" class="st5 st3 st4">i</text>
	<text transform="matrix(1 0 0 1 389.0756 147.8627)" class="st5 st3 st4">o</text>
	<text transform="matrix(1 0 0 1 90.5543 230.2626)" class="st3 st6">Hong </text>
	<text transform="matrix(1 0 0 1 127.5643 230.2626)" class="st3 st6">K</text>
	<text transform="matrix(1 0 0 1 136.1543 230.2626)" class="st3 st6">ong</text>
	<text transform="matrix(1 0 0 1 228.0143 233.1828)" class="st5 st3 st4">T</text>
	<text transform="matrix(1 0 0 1 236.6743 233.1828)" class="st5 st3 st4">aipei</text>
	<text transform="matrix(1 0 0 1 236.8643 126.4328)" class="st5 st3 st4">Seúl</text>
</g>
</svg>
