<?xml version="1.0" encoding="utf-8"?>
<!-- Generator: Adobe Illustrator 24.0.2, SVG Export Plug-In . SVG Version: 6.00 Build 0)  -->
<svg version="1.1" id="Layer_1" xmlns="http://www.w3.org/2000/svg" xmlns:xlink="http://www.w3.org/1999/xlink" x="0px" y="0px"
	 viewBox="0 0 433.5 400.8" style="enable-background:new 0 0 433.5 400.8;" xml:space="preserve">
<style type="text/css">
	.st0{stroke:#000000;stroke-miterlimit:10;}
	.st1{font-family:'Roboto-Light';}
	.st2{font-size:14px;}
	.st3{fill:#77787B;}
	.st4{font-family:'Roboto-Regular';}
	.st5{font-size:16px;}
	.st6{fill:none;stroke:#010101;stroke-width:0.5;stroke-linecap:square;stroke-miterlimit:1;}
	.st7{fill:#010101;}
	.st8{fill:#231F20;}
</style>
<g id="Layer_3">
	<path class="st0" d="M182.1,112.9c-1.4,0-2.5,1.1-2.5,2.5l0,0c0,1.4,1.1,2.5,2.5,2.5s2.5-1.1,2.5-2.5S183.5,112.9,182.1,112.9"/>
	<path class="st0" d="M361,157.1c-1.4,0-2.5,1.1-2.5,2.5l0,0c0,1.4,1.1,2.6,2.5,2.6s2.6-1.1,2.6-2.5
		C363.6,158.3,362.5,157.1,361,157.1L361,157.1"/>
	<path class="st0" d="M89.2,325.3c-1.4,0-2.5,1.1-2.5,2.5l0,0c0,1.4,1.1,2.5,2.5,2.5s2.5-1.1,2.5-2.5S90.6,325.3,89.2,325.3"/>
	<path class="st0" d="M269.9,137.8c-1.4,0-2.5,1.1-2.5,2.5s1.1,2.5,2.5,2.5s2.5-1.1,2.5-2.5S271.3,137.8,269.9,137.8"/>
	<text transform="matrix(1 0 0 1 189.64 122.3)" class="st1 st2">Pekín</text>
	<text transform="matrix(1 0 0 1 24.49 331.83)" class="st3 st4 st5">Bangkok</text>
	<path class="st6" d="M190.9,257.1c-2.3-12.9-14.5-21.5-27.4-19.4"/>
	<polygon class="st7" points="192.5,255 192.1,254.8 190.8,256.9 188.8,255.5 188.5,255.9 191,257.6 	"/>
	<text transform="matrix(1 0 0 1 234.06 247.1999)" class="st3 st4 st5">T</text>
	<text transform="matrix(1 0 0 1 242.72 247.1999)" class="st3 st4 st5">aipei</text>
	<text transform="matrix(1 0 0 1 94.42 242.4599)" class="st8 st4 st2">Hong </text>
	<text transform="matrix(1 0 0 1 131.43 242.4599)" class="st8 st4 st2">K</text>
	<text transform="matrix(1 0 0 1 140.02 242.4599)" class="st8 st4 st2">ong</text>
	<text transform="matrix(1 0 0 1 368.93 164.2199)" class="st3 st4 st5">T</text>
	<text transform="matrix(1 0 0 1 377.7 164.2199)" class="st3 st4 st5">okio</text>
	<text transform="matrix(1 0 0 1 233.2813 151.9299)" class="st3 st4 st5">Seúl</text>
</g>
</svg>
