<?xml version="1.0" encoding="utf-8"?>
<!-- Generator: Adobe Illustrator 24.0.2, SVG Export Plug-In . SVG Version: 6.00 Build 0)  -->
<svg version="1.1"
	 id="Layer_1" xmlns:inkscape="http://www.inkscape.org/namespaces/inkscape" xmlns:sodipodi="http://sodipodi.sourceforge.net/DTD/sodipodi-0.dtd" xmlns:svg="http://www.w3.org/2000/svg"
	 xmlns="http://www.w3.org/2000/svg" xmlns:xlink="http://www.w3.org/1999/xlink" x="0px" y="0px" viewBox="0 0 339 491.8"
	 style="enable-background:new 0 0 339 491.8;" xml:space="preserve">
<style type="text/css">
	.st0{opacity:0.5;enable-background:new    ;}
	.st1{font-family:'Roboto-Light';}
	.st2{font-size:12px;}
	.st3{opacity:0.5;fill:none;stroke:#FF513F;stroke-width:1.5;stroke-miterlimit:10;enable-background:new    ;}
	.st4{fill:none;stroke:#C4C5C7;stroke-width:2;stroke-miterlimit:10;}
	.st5{font-family:'Roboto-Bold';}
	.st6{font-size:16px;}
	.st7{opacity:0.5;}
	.st8{font-family:'Roboto-LightItalic';}
	.st9{font-size:10px;}
	.st10{fill:none;stroke:url(#line50_1_);stroke-width:4;stroke-miterlimit:10;}
	.st11{fill:url(#polygon59_1_);}
	.st12{fill:none;stroke:url(#line74_1_);stroke-width:4;stroke-miterlimit:10;}
	.st13{fill:url(#polygon83_1_);}
	.st14{fill:none;stroke:url(#line98_1_);stroke-width:4;stroke-miterlimit:10;}
	.st15{fill:url(#polygon107_1_);}
	.st16{fill:url(#polygon120_1_);}
	.st17{fill:url(#polygon127_1_);}
</style>
<sodipodi:namedview  bordercolor="#666666" borderopacity="1.0" id="namedview132" inkscape:current-layer="Layer_1" inkscape:cx="272.6161" inkscape:cy="202.63107" inkscape:pagecheckerboard="0" inkscape:pageopacity="0.0" inkscape:pageshadow="2" inkscape:window-height="800" inkscape:window-maximized="0" inkscape:window-width="997" inkscape:window-x="402" inkscape:window-y="25" inkscape:zoom="1.2288343" pagecolor="#ffffff" showgrid="false">
	</sodipodi:namedview>
<image style="overflow:visible;enable-background:new    ;" width="1026" height="1280" id="image326" xlink:href="CB6574EE13BE829D.jpeg"  transform="matrix(0.3307 0 0 0.3444 -0.5883 45.4514)">
</image>
<text id="text13" transform="matrix(1 0 0 1 141.8778 145.6816)" class="st0 st1 st2">SHENZHEN</text>
<path id="path17" class="st3" d="M152.5,250.8l-45.3,16.8c-4.8,1.8-7.5,7-6.2,11.9l51.5,194.4"/>
<path id="path19" class="st3" d="M152.5,250.8L108,268.4c-4.8,1.9-7.3,7.1-5.9,12l54.4,193.5"/>
<path id="path21" class="st3" d="M152.5,251.9l-44.4,16.7c-4.8,1.8-7.4,6.9-6.2,11.8l9,35.9c1.4,5.7,7.4,8.9,12.9,7.1l24.1-8.1
	c2-0.7,3.7-2,5-3.7L339,53"/>
<path id="path23" class="st3" d="M152.5,251.9l-45.1,15.7c-4.9,1.7-7.7,7-6.4,12l10.1,38.1c1.4,5.1,6.4,8.3,11.6,7.2l25.8-5.1
	c2.6-0.5,4.8-2,6.3-4.1L339,57"/>
<path id="path25" class="st3" d="M152.5,250.8L108.7,268c-4.6,1.8-7.2,6.8-6.1,11.6l11.1,47.5c0.7,2.8,2.5,5.2,5.1,6.6L339,449.9"/>
<path id="path27" class="st3" d="M152.5,250.8L108,268.4c-4.8,1.9-7.3,7.1-5.9,12l58.4,193.5"/>
<circle id="circle29" cx="152.3" cy="250.9" r="3"/>
<path id="path31" class="st4" d="M190.4,183.6l5.1-2.1l1.8-2.1l2.6-4.1l2.1-3.2l2.6-0.5l2.9,0.2l4,2.4l5-2.6l6.9-2.6l2.1-4.1
	l3.7-1.5l4.7,1.5l4.5-0.3l4.5,0.9l7.2,1.9"/>
<g id="g35">
	<text id="text33" transform="matrix(1 0 0 1 126.5872 240.5664)" class="st5 st6">Aeropuerto</text>
</g>
<g id="g41" class="st7">
	<text id="text37" transform="matrix(1 0 0 1 226.4213 440.9999)" class="st8 st9">SUR</text>
	<text id="text39" transform="matrix(1 0 0 1 217.8213 452.9999)" class="st8 st9">MAR CHINO</text>
</g>
<g id="g65" class="st7">
	<g id="g63">
		
			<linearGradient id="line50_1_" gradientUnits="userSpaceOnUse" x1="116.5" y1="10504.002" x2="116.5" y2="10458.9854" gradientTransform="matrix(1 0 0 1 0 -10071.1816)">
			<stop  offset="0" style="stop-color:#000000"/>
			<stop  offset="0.8777" style="stop-color:#000000;stop-opacity:0.1223"/>
			<stop  offset="1" style="stop-color:#000000;stop-opacity:0"/>
		</linearGradient>
		<line id="line50" class="st10" x1="111.3" y1="388.4" x2="121.7" y2="424"/>
		<g id="g61">
			
				<linearGradient id="polygon59_1_" gradientUnits="userSpaceOnUse" x1="121.25" y1="10504.002" x2="121.25" y2="10458.9854" gradientTransform="matrix(1 0 0 1 0 -10071.1816)">
				<stop  offset="0" style="stop-color:#000000"/>
				<stop  offset="0.8777" style="stop-color:#000000;stop-opacity:0.1223"/>
				<stop  offset="1" style="stop-color:#000000;stop-opacity:0"/>
			</linearGradient>
			<polygon id="polygon59" class="st11" points="115.5,424 124.1,432.3 127,420.6 			"/>
		</g>
	</g>
</g>
<g id="g89" class="st7">
	<g id="g87">
		
			<linearGradient id="line74_1_" gradientUnits="userSpaceOnUse" x1="277.1297" y1="10482.251" x2="244.8283" y2="10450.8955" gradientTransform="matrix(1 0 0 1 0 -10071.1816)">
			<stop  offset="0" style="stop-color:#000000"/>
			<stop  offset="0.8777" style="stop-color:#000000;stop-opacity:0.1223"/>
			<stop  offset="1" style="stop-color:#000000;stop-opacity:0"/>
		</linearGradient>
		<line id="line74" class="st12" x1="241.6" y1="383.8" x2="274.4" y2="401.2"/>
		<g id="g85">
			
				<linearGradient id="polygon83_1_" gradientUnits="userSpaceOnUse" x1="280.4356" y1="10478.8457" x2="248.1342" y2="10447.4902" gradientTransform="matrix(1 0 0 1 0 -10071.1816)">
				<stop  offset="0" style="stop-color:#000000"/>
				<stop  offset="0.8777" style="stop-color:#000000;stop-opacity:0.1223"/>
				<stop  offset="1" style="stop-color:#000000;stop-opacity:0"/>
			</linearGradient>
			<polygon id="polygon83" class="st13" points="270.1,405.6 282,405.2 275.7,395.1 			"/>
		</g>
	</g>
</g>
<g id="g113" class="st7">
	<g id="g111">
		
			<linearGradient id="line98_1_" gradientUnits="userSpaceOnUse" x1="327.1782" y1="10175.4717" x2="292.9741" y2="10204.7402" gradientTransform="matrix(1 0 0 1 0 -10071.1816)">
			<stop  offset="0" style="stop-color:#000000"/>
			<stop  offset="0.8777" style="stop-color:#000000;stop-opacity:0.1223"/>
			<stop  offset="1" style="stop-color:#000000;stop-opacity:0"/>
		</linearGradient>
		<line id="line98" class="st14" x1="296.8" y1="137.1" x2="317.1" y2="106.1"/>
		<g id="g109">
			
				<linearGradient id="polygon107_1_" gradientUnits="userSpaceOnUse" x1="324.1055" y1="10171.8809" x2="289.9015" y2="10201.1484" gradientTransform="matrix(1 0 0 1 0 -10071.1816)">
				<stop  offset="0" style="stop-color:#000000"/>
				<stop  offset="0.8777" style="stop-color:#000000;stop-opacity:0.1223"/>
				<stop  offset="1" style="stop-color:#000000;stop-opacity:0"/>
			</linearGradient>
			<polygon id="polygon107" class="st15" points="321.1,110.8 321.8,98.9 311.1,104.3 			"/>
		</g>
	</g>
</g>
<linearGradient id="polygon120_1_" gradientUnits="userSpaceOnUse" x1="-6777.0796" y1="7417.1323" x2="-6777.0796" y2="7383.332" gradientTransform="matrix(6.123234e-17 -1 1 6.123234e-17 -7078.4321 -6352.7295)">
	<stop  offset="0" style="stop-color:#FFFFFF"/>
	<stop  offset="1" style="stop-color:#FFFFFF;stop-opacity:0"/>
</linearGradient>
<polygon id="polygon120" class="st16" points="304.9,362.4 304.9,486.3 338.7,486.3 338.7,362.4 "/>
<linearGradient id="polygon127_1_" gradientUnits="userSpaceOnUse" x1="-3269.5793" y1="8429.1318" x2="-3269.5793" y2="8395.332" gradientTransform="matrix(1 0 0 1 3411.4294 -7954.2319)">
	<stop  offset="0" style="stop-color:#FFFFFF"/>
	<stop  offset="1" style="stop-color:#FFFFFF;stop-opacity:0"/>
</linearGradient>
<polygon id="polygon127" class="st17" points="203.8,441.1 79.9,441.1 79.9,474.9 203.8,474.9 "/>
<text id="text129" transform="matrix(1 0 0 1 208.1257 317.164)" class="st0 st5 st6">HONG KONG</text>
</svg>
